<svg width="535" height="535" viewBox="0 0 535 535" fill="none" xmlns="http://www.w3.org/2000/svg">
<g filter="url(#filter0_d)">
<g filter="url(#filter1_d)">
<path d="M440 181.07C432.47 175.07 415.33 164.79 397 162.07C378.67 159.35 357.33 158.7 331.46 173.76C332.23 163.28 338.77 111.82 277.95 81.2202C277.153 82.7345 275.932 83.9843 274.437 84.817C272.942 85.6498 271.237 86.0296 269.53 85.9102C273.059 94.7798 275.363 104.089 276.38 113.58C276.64 115.89 279.71 145.64 269.56 160.58C255.78 135.21 225.73 110.06 160.12 117.78C154.142 118.522 148.219 119.654 142.39 121.17C143.067 123.534 142.976 126.052 142.13 128.36C143.13 128.69 151.7 131.41 156.03 133.17C161.811 135.281 167.368 137.961 172.62 141.17C172.62 141.17 188.02 148.27 199.49 167.24C198.075 167.237 196.662 167.327 195.26 167.51C173.07 169.26 121.45 195.43 107.73 235.18C121.26 226.27 130.3 227.45 132.88 226.73C88.0099 270.73 95.3099 353.66 130.25 393.73C130.54 371.39 142.33 344.68 167.83 338.47C111.44 387.86 196.12 453.84 250.75 451.24C252.91 438.16 233.07 430.07 224.14 427.57C199.02 419.46 160.84 397.49 170.85 366.19C185.29 333.97 223.75 358.86 251.27 368.7C278.79 378.54 303.17 370.3 318.27 363.83C366.68 345.42 376.91 409.07 304.11 421.83C310.39 427.234 315.548 433.819 319.29 441.21C319.83 440.98 320.39 440.76 320.94 440.57C362.49 430.03 398.77 379.73 361.01 345.17C382.27 351.17 394.01 372.95 401.3 393.33C425.58 344.94 433.38 293.99 410.42 247.63C413.572 247.551 416.72 247.918 419.77 248.72C410.77 232.14 402.15 219.49 387.55 210.53L387.82 210.32C400.9 199.88 419.34 188.32 436.82 188.32C436.82 188.32 435.94 183.46 440.02 181.02L440 181.07ZM250.31 298.71C240.61 295.94 209.31 288.65 171.71 296.53C170.525 296.769 169.299 296.717 168.139 296.378C166.978 296.039 165.917 295.424 165.046 294.586C164.175 293.747 163.52 292.71 163.137 291.563C162.755 290.416 162.656 289.194 162.85 288C164.85 275.46 174.17 255.65 196.01 250.86C235.67 242.16 252.01 283.13 252.9 296.34C252.953 296.683 252.92 297.034 252.805 297.362C252.689 297.69 252.495 297.984 252.239 298.218C251.983 298.453 251.673 298.62 251.336 298.706C251 298.792 250.647 298.793 250.31 298.71ZM360.91 297.08C329.56 285.46 301.54 295.73 291.05 297.15C289.25 297.39 287.77 296.27 288.23 295.05C292.91 282.62 303.35 263.58 332.42 263.13C355.42 262.77 368.78 285.29 370.03 294.01C370.55 297.56 365.79 298.89 360.91 297.08Z" fill="#0098FF"/>
<path d="M397 162.08C394.51 161.71 392 161.38 389.37 161.08C399.114 166.046 407.275 173.639 412.93 183C414.283 177.945 416.692 173.235 420 169.18C412.7 165.758 404.959 163.369 397 162.08ZM331.46 173.77C332.23 163.28 338.77 111.77 277.95 81.23C277.151 82.7425 275.93 83.9901 274.435 84.821C272.94 85.652 271.236 86.0303 269.53 85.91C273.057 94.7801 275.362 104.089 276.38 113.58C276.64 115.9 279.71 145.64 269.56 160.58L269.32 160.15L269.43 160.58C269.43 160.58 263.37 198.33 198.65 167.25C197.516 167.254 196.383 167.334 195.26 167.49C173.06 169.25 121.45 195.41 107.73 235.17C121.26 226.25 130.3 227.43 132.88 226.71C88.0099 270.71 95.3099 353.64 130.25 393.71C130.53 371.38 142.33 344.71 167.83 338.46C111.44 387.85 196.12 453.82 250.75 451.23C252.91 438.15 233.07 430.06 224.14 427.55C199.02 419.44 160.84 397.48 170.85 366.17C182.28 340.68 208.75 350.94 232.94 361.22C241.29 338.22 260.37 307.22 303.58 294.58C298.28 295.68 294.02 296.76 291.11 297.15C289.3 297.39 287.83 296.27 288.29 295.05C290.89 288.13 295.29 279.17 303.66 272.51C277.49 256.04 248.72 260.09 248.72 260.09C248.72 260.09 284.13 167.7 374.59 190.65C369.3 177.43 363.77 168.59 358.78 162.74C349.146 164.994 339.915 168.714 331.41 173.77H331.46ZM252.9 296.34C252.953 296.683 252.921 297.034 252.806 297.361C252.691 297.689 252.496 297.983 252.239 298.216C251.983 298.45 251.672 298.617 251.336 298.701C250.999 298.786 250.646 298.785 250.31 298.7C240.61 295.94 209.31 288.65 171.71 296.53C170.525 296.769 169.299 296.716 168.139 296.378C166.978 296.039 165.917 295.424 165.046 294.586C164.175 293.747 163.52 292.71 163.137 291.563C162.755 290.416 162.656 289.193 162.85 288C164.85 275.46 174.17 255.65 196.01 250.85C235.67 242.15 252 283.13 252.9 296.34ZM172.56 141.15C172.56 141.15 186.81 147.71 198.09 165.09C196.09 141.03 211.37 130.9 211.37 130.9C211.37 130.9 188.85 126.22 171.1 140.27L172.56 141.15ZM155.97 133.15C160.481 134.803 164.854 136.809 169.05 139.15C169.038 131.163 171.277 123.334 175.51 116.56C170.59 116.76 165.45 117.17 160.06 117.81C154.081 118.542 148.157 119.674 142.33 121.2C143.007 123.56 142.916 126.075 142.07 128.38C143.11 128.67 151.64 131.39 156 133.16L155.97 133.15Z" fill="#26648D"/>
<path d="M311.26 292.59C311.2 292.78 311.15 292.98 311.09 293.18C319.921 291.69 328.902 291.294 337.83 292C336.251 290.102 335.312 287.753 335.147 285.289C334.981 282.825 335.599 280.372 336.91 278.28C333.441 277.4 329.807 277.405 326.341 278.295C322.875 279.184 319.687 280.929 317.07 283.37C317.07 283.37 314.33 285.82 311.26 292.63" fill="white"/>
<path d="M214.74 291.17C212.878 288.679 212.081 285.55 212.523 282.472C212.966 279.393 214.612 276.616 217.1 274.75C217.35 274.57 217.6 274.41 217.85 274.25C214.517 272.463 210.769 271.594 206.99 271.731C203.211 271.868 199.536 273.006 196.341 275.029C193.146 277.052 190.546 279.888 188.806 283.246C187.067 286.603 186.25 290.363 186.44 294.14C196.516 292.975 206.675 292.69 216.8 293.29C216.03 292.669 215.338 291.958 214.74 291.17Z" fill="white"/>
<path d="M346.71 373.32C338.95 366.32 326.4 367.89 316.71 372.18C302.05 378.64 278.39 386.9 251.71 377.05C230.97 369.4 203.82 352.69 186.16 360.69C191.53 367.23 214.66 391.27 265.85 393.26C304.7 394.77 338.38 377.9 346.76 373.32" fill="white"/>
<path d="M260 79.1701C271.84 79.8801 277.59 70.0901 276.39 62.5501C275.19 55.0101 267.09 48.7601 259 49.1501C250.91 49.5401 244 56.4701 244.3 64.0501C244.6 71.6301 251.9 78.6801 260.05 79.1701" fill="white"/>
<path d="M468.72 189.3C467.78 182.99 461.48 177.77 455.17 178.09C452.042 178.338 449.124 179.763 447.005 182.077C444.886 184.391 443.722 187.422 443.75 190.56C443.981 193.771 445.336 196.799 447.576 199.112C449.815 201.425 452.798 202.876 456 203.21C465.19 203.81 469.66 195.61 468.73 189.3" fill="white"/>
<path d="M122.73 135.54C124.644 135.422 126.507 134.874 128.18 133.936C129.853 132.998 131.293 131.695 132.393 130.123C133.492 128.552 134.223 126.753 134.531 124.86C134.838 122.967 134.715 121.029 134.17 119.19C132.24 112.89 124.76 108.61 118.1 109.99C111.44 111.37 106.67 118.2 107.84 124.66C109.01 131.12 115.95 136.18 122.73 135.54Z" fill="white"/>
<path d="M309.26 437.69C307.208 433.913 304.736 430.381 301.89 427.16C301.145 426.361 300.358 425.603 299.53 424.89C297.026 422.527 294.238 420.484 291.23 418.81C289.7 417.98 290.06 417.99 285.76 416.43C282.71 415.724 279.611 415.253 276.49 415.02C272.313 414.605 268.118 414.401 263.92 414.41C263.7 414.41 264.15 414.69 264.67 415.02C277.23 420.66 283.73 428.57 286.51 439.81C286.74 440.68 286.85 441.22 286.85 441.22C277.85 425.07 261.36 418.72 254.8 416.75C253.46 416.43 250.86 415.92 245.94 418.42C240 421.42 238.68 422.62 236.75 424.27C236.59 424.404 236.466 424.575 236.389 424.769C236.312 424.963 236.284 425.172 236.307 425.38C236.331 425.587 236.406 425.785 236.525 425.956C236.644 426.127 236.804 426.266 236.99 426.36L243.99 429.9L244.15 429.99C251.96 435.33 252.15 437.99 254.97 442.1C254.97 442.1 258.35 447.68 260.67 451.75C263.51 456.75 266.28 461.75 270.05 466.11C273.82 470.47 276.44 472.11 281.95 473.75C284.48 474.49 288.73 474.13 291.21 473.91C295.291 473.616 299.259 472.439 302.84 470.46C310.44 466.66 313.25 459.46 313.59 453.07C313.89 447.43 312 442.46 309.29 437.69" fill="#FD3E71"/>
</g>
</g>
<defs>
<filter id="filter0_d" x="0" y="0" width="534.96" height="534.96" filterUnits="userSpaceOnUse" color-interpolation-filters="sRGB">
<feFlood flood-opacity="0" result="BackgroundImageFix"/>
<feColorMatrix in="SourceAlpha" type="matrix" values="0 0 0 0 0 0 0 0 0 0 0 0 0 0 0 0 0 0 127 0" result="hardAlpha"/>
<feOffset/>
<feGaussianBlur stdDeviation="8"/>
<feColorMatrix type="matrix" values="0 0 0 0 0 0 0 0 0 0 0 0 0 0 0 0 0 0 0.05 0"/>
<feBlend mode="normal" in2="BackgroundImageFix" result="effect1_dropShadow"/>
<feBlend mode="normal" in="SourceGraphic" in2="effect1_dropShadow" result="shape"/>
</filter>
<filter id="filter1_d" x="16" y="16" width="534.96" height="534.96" filterUnits="userSpaceOnUse" color-interpolation-filters="sRGB">
<feFlood flood-opacity="0" result="BackgroundImageFix"/>
<feColorMatrix in="SourceAlpha" type="matrix" values="0 0 0 0 0 0 0 0 0 0 0 0 0 0 0 0 0 0 127 0" result="hardAlpha"/>
<feOffset dx="16" dy="16"/>
<feGaussianBlur stdDeviation="8"/>
<feComposite in2="hardAlpha" operator="out"/>
<feColorMatrix type="matrix" values="0 0 0 0 0 0 0 0 0 0 0 0 0 0 0 0 0 0 0.4 0"/>
<feBlend mode="normal" in2="BackgroundImageFix" result="effect1_dropShadow"/>
<feBlend mode="normal" in="SourceGraphic" in2="effect1_dropShadow" result="shape"/>
</filter>
</defs>
</svg>
