<svg width="80" height="80" viewBox="0 0 80 80" fill="none" xmlns="http://www.w3.org/2000/svg">
<path d="M56.9224 24.4176C56.9224 24.4176 56.5601 15.0843 59.1883 11.9123C59.1883 11.9123 53.933 12.8189 53.254 20.204C53.254 20.204 53.1188 13.7699 55.1571 11.324C57.1953 8.87813 49.6197 12.5467 48.8104 17.2589C48.8104 17.2589 48.0805 14.4043 48.8104 12.5923C49.5403 10.7803 46.9124 15.6267 46.7311 19.3883C46.7311 19.3883 41.9671 14.0419 45.2321 10.3717C45.2321 10.3717 40.7973 13.5888 41.4315 19.2517C41.4315 19.2517 39.8587 15.1739 41.3694 12.6365C41.3694 12.6365 38.6237 13.3613 37.2641 19.4781C37.2641 19.4781 36.313 12.7723 38.9854 8.42267C38.9854 8.42267 32.8253 8.8304 32.0544 19.6595C32.0544 19.6595 29.6552 18.572 31.3296 14.3128C31.3296 14.3128 27.5348 15.2995 27.8822 20.344C27.1725 19.7853 26.1963 17.9528 26.256 14.9472C26.256 14.9472 21.5003 18.4059 24.1698 24.9605C24.9575 26.8947 48.8075 25.2325 48.8075 25.2325L61.1327 27.1808L56.9224 24.4176Z" fill="#494949"/>
<path d="M50.3581 28.6555C50.3581 28.6555 57.6538 14.8376 71.4082 11.1544C85.1625 7.47121 60.6571 37.988 60.6571 37.988L50.3581 28.6555Z" fill="#848484"/>
<path d="M55.9414 25.2117C55.9414 25.2117 60.9738 15.68 70.4616 13.1397C79.9494 10.5995 63.0457 31.6491 63.0457 31.6491L55.9414 25.2117Z" fill="#AAAAAA"/>
<path d="M29.7234 28.6555C29.7234 28.6555 22.428 14.8376 8.6734 11.1544C-5.08121 7.47121 19.4245 37.988 19.4245 37.988L29.7234 28.6555Z" fill="#848484"/>
<path d="M24.141 25.2117C24.141 25.2117 19.1088 15.68 9.62103 13.1397C0.133254 10.5995 17.037 31.6491 17.037 31.6491L24.141 25.2117Z" fill="#AAAAAA"/>
<path d="M40.0762 68.6851C24.6653 68.6851 12.1722 58.2234 12.1722 45.3184C12.1722 32.4133 24.6653 21.9517 40.0762 21.9517C55.4872 21.9517 67.9803 32.4133 67.9803 45.3184C67.9803 58.2234 55.4872 68.6851 40.0762 68.6851Z" fill="#6B6B6B"/>
<path d="M40.0758 66.8725C24.6648 66.8725 12.1717 56.4254 12.1717 43.5381C12.1717 30.6509 24.6648 20.2037 40.0758 20.2037C55.4867 20.2037 67.9798 30.6509 67.9798 43.5381C67.9798 56.4254 55.4867 66.8725 40.0758 66.8725Z" fill="#848484"/>
<path d="M28.8254 47.5696C23.7809 47.5696 19.6916 43.4789 19.6916 38.4328C19.6916 33.3867 23.7809 29.296 28.8254 29.296C33.8698 29.296 37.9591 33.3867 37.9591 38.4328C37.9591 43.4789 33.8698 47.5696 28.8254 47.5696Z" fill="white"/>
<path d="M29.7287 45.2424C25.9692 45.2424 22.9214 42.1936 22.9214 38.4328C22.9214 34.672 25.9692 31.6232 29.7287 31.6232C33.4883 31.6232 36.5361 34.672 36.5361 38.4328C36.5361 42.1936 33.4883 45.2424 29.7287 45.2424Z" fill="black"/>
<path d="M24.1719 37.399C24.2405 37.5061 24.325 37.6022 24.4225 37.684C25.2414 38.3699 26.7793 37.8822 27.8568 36.5944C28.9343 35.3067 29.1449 33.707 28.326 33.0211C28.2994 32.9992 28.2727 32.9787 28.246 32.96C27.2315 33.2665 26.318 33.8403 25.6012 34.6213C24.8844 35.4022 24.3908 36.3616 24.1719 37.399V37.399Z" fill="white"/>
<path d="M51.1363 47.5696C46.0919 47.5696 42.0026 43.4789 42.0026 38.4328C42.0026 33.3867 46.0919 29.296 51.1363 29.296C56.1807 29.296 60.2701 33.3867 60.2701 38.4328C60.2701 43.4789 56.1807 47.5696 51.1363 47.5696Z" fill="white"/>
<path d="M52.0397 45.2424C48.2801 45.2424 45.2324 42.1936 45.2324 38.4328C45.2324 34.672 48.2801 31.6232 52.0397 31.6232C55.7993 31.6232 58.847 34.672 58.847 38.4328C58.847 42.1936 55.7993 45.2424 52.0397 45.2424Z" fill="black"/>
<path d="M46.4829 37.399C46.5514 37.5062 46.6359 37.6023 46.7335 37.684C47.5521 38.3699 49.09 37.8822 50.1678 36.5944C51.2456 35.3067 51.4556 33.707 50.637 33.0211C50.6103 32.9992 50.5836 32.9787 50.557 32.96C49.5424 33.2665 48.6289 33.8403 47.9121 34.6213C47.1954 35.4022 46.7017 36.3616 46.4829 37.399V37.399Z" fill="white"/>
<path d="M49.4769 51.928H30.6005C29.0765 51.928 27.6149 52.5336 26.5372 53.6116C25.4596 54.6896 24.8541 56.1517 24.8541 57.6763V60.0467C24.8541 62.7863 25.9421 65.4138 27.8787 67.351C29.8153 69.2882 32.4418 70.3765 35.1806 70.3765H44.8971C46.2532 70.3765 47.596 70.1094 48.8488 69.5902C50.1017 69.0711 51.2401 68.3102 52.199 67.351C54.1355 65.4138 55.2235 62.7863 55.2235 60.0467V57.6763C55.2235 56.9214 55.0749 56.1739 54.7861 55.4764C54.4973 54.779 54.074 54.1453 53.5403 53.6115C53.0067 53.0778 52.3732 52.6544 51.676 52.3655C50.9788 52.0766 50.2315 51.928 49.4769 51.928V51.928Z" fill="#AFAFAF"/>
<path d="M35.2416 60.212C33.6407 60.212 32.3428 58.9137 32.3428 57.3123C32.3428 55.7108 33.6407 54.4125 35.2416 54.4125C36.8426 54.4125 38.1404 55.7108 38.1404 57.3123C38.1404 58.9137 36.8426 60.212 35.2416 60.212Z" fill="#282828"/>
<path d="M35.6039 60.1091C34.2988 60.1091 33.2409 59.0508 33.2409 57.7453C33.2409 56.4399 34.2988 55.3816 35.6039 55.3816C36.9089 55.3816 37.9668 56.4399 37.9668 57.7453C37.9668 59.0508 36.9089 60.1091 35.6039 60.1091Z" fill="#4C4C4C"/>
<path d="M44.8843 60.212C43.2833 60.212 41.9855 58.9137 41.9855 57.3123C41.9855 55.7108 43.2833 54.4125 44.8843 54.4125C46.4852 54.4125 47.783 55.7108 47.783 57.3123C47.783 58.9137 46.4852 60.212 44.8843 60.212Z" fill="#282828"/>
<path d="M44.5219 60.1091C43.2169 60.1091 42.159 59.0508 42.159 57.7453C42.159 56.4399 43.2169 55.3816 44.5219 55.3816C45.827 55.3816 46.8849 56.4399 46.8849 57.7453C46.8849 59.0508 45.827 60.1091 44.5219 60.1091Z" fill="#4C4C4C"/>
</svg>
