<svg width="24" height="22" viewBox="0 0 24 22" fill="none" xmlns="http://www.w3.org/2000/svg">
<path d="M18.2565 11.0196C18.2129 11.8633 17.5058 12.5639 16.809 12.4417C16.8056 12.4417 16.8021 12.4417 16.7985 12.4417C16.0267 12.4427 15.4002 11.7912 15.3994 10.9865C15.4256 10.1797 16.0675 9.5438 16.8417 9.55748C17.6135 9.56139 18.2981 10.2414 18.2565 11.0196ZM5.84458 19.1958C6.13563 19.2047 6.42687 19.1982 6.7625 19.1982V21.3969C4.67646 21.7646 2.95812 21.1472 2.53646 19.309C2.39208 18.6331 2.30333 17.9455 2.27083 17.2538C2.22604 16.5214 2.30354 15.7808 2.25 15.0498C2.10167 13.0383 1.85167 12.3515 0 12.2564V9.75295C0.132708 9.72059 0.267292 9.6967 0.402709 9.68084C1.41792 9.62872 1.84583 9.30425 2.07292 8.26177C2.17625 7.67603 2.2375 7.08313 2.25562 6.48783C2.33604 5.33677 2.3075 4.16702 2.49146 3.03464C2.75729 1.39708 3.7325 0.601545 5.34333 0.5125C5.80167 0.486872 6.26146 0.508591 6.78083 0.508591V2.75599C6.56708 2.77184 6.37125 2.80421 6.17667 2.79812C4.86396 2.75621 4.79604 3.22228 4.70021 4.3551C4.64042 5.06551 4.72292 5.78807 4.67646 6.50086C4.62792 7.21018 4.53687 7.9158 4.40396 8.61339C4.21458 9.62438 3.61833 10.3763 2.79208 11.0143C4.39604 12.1024 4.57854 13.7932 4.68271 15.51C4.73875 16.4326 4.71312 17.3617 4.80292 18.2797C4.87292 18.9923 5.13875 19.1741 5.84458 19.1958ZM7.19646 9.55748C7.20479 9.55748 7.21292 9.55748 7.22125 9.55748C7.98812 9.57073 8.59979 10.2294 8.58708 11.0291C8.58708 11.0554 8.58625 11.0814 8.58479 11.1075C8.54167 11.8889 7.89917 12.4857 7.14958 12.4408C7.11937 12.4414 7.08937 12.4408 7.05917 12.4393C6.29583 12.3997 5.70771 11.7226 5.74562 10.9268C5.78354 10.1311 6.43312 9.51796 7.19646 9.55748ZM11.9754 9.55748C12.8142 9.55075 13.3713 10.1174 13.3756 10.9818C13.3802 11.8694 12.8521 12.4373 12.0187 12.441C11.1712 12.4449 10.6133 11.8861 10.6087 11.0269C10.6062 10.9831 10.6056 10.9392 10.6069 10.8953C10.6304 10.1319 11.2431 9.53294 11.9754 9.55748ZM21.9812 8.46245C22.2044 9.33118 22.6387 9.63654 23.516 9.67824C23.6598 9.68519 23.8029 9.7106 24 9.7334V12.2362C23.8933 12.2727 23.784 12.3001 23.6729 12.3179C22.4973 12.3941 21.9615 12.8969 21.8427 14.1257C21.7669 14.9102 21.7731 15.7033 21.721 16.4906C21.6992 17.355 21.6237 18.217 21.4952 19.0711C21.1952 20.6188 20.2683 21.3909 18.7369 21.4851C18.244 21.5155 17.7475 21.4899 17.216 21.4899V19.2529C17.5021 19.2345 17.7546 19.2091 18.0077 19.2028C18.9227 19.18 19.2462 18.8724 19.291 17.9251C19.3406 16.8843 19.3623 15.8423 19.4069 14.8013C19.4717 13.2967 19.8669 11.9526 21.2115 11.0141C20.4421 10.4423 19.8244 9.74969 19.6644 8.81581C19.4708 7.68385 19.4083 6.52692 19.3042 5.37912C19.2527 4.80532 19.2552 4.22653 19.2015 3.65317C19.1435 3.0342 18.7356 2.82006 18.1952 2.80616C17.8856 2.79834 17.5748 2.80464 17.179 2.80464V0.620222C19.7048 0.183035 21.4496 1.05915 21.6117 3.57846C21.6796 4.63635 21.6696 5.69924 21.7346 6.75714C21.7631 7.33267 21.8456 7.90386 21.9812 8.46245Z" fill="white"/>
</svg>
