<svg width="24" height="24" viewBox="0 0 24 24" fill="none" xmlns="http://www.w3.org/2000/svg">
<path d="M18.2565 12.0196C18.2129 12.8633 17.5058 13.5639 16.809 13.4417C16.8056 13.4417 16.8021 13.4417 16.7985 13.4417C16.0267 13.4427 15.4002 12.7912 15.3994 11.9865C15.4256 11.1797 16.0675 10.5438 16.8417 10.5575C17.6135 10.5614 18.2981 11.2414 18.2565 12.0196ZM5.84458 20.1958C6.13563 20.2047 6.42687 20.1982 6.7625 20.1982V22.3969C4.67646 22.7646 2.95812 22.1472 2.53646 20.309C2.39208 19.6331 2.30333 18.9455 2.27083 18.2538C2.22604 17.5214 2.30354 16.7808 2.25 16.0498C2.10167 14.0383 1.85167 13.3515 0 13.2564V10.7529C0.132708 10.7206 0.267292 10.6967 0.402709 10.6808C1.41792 10.6287 1.84583 10.3042 2.07292 9.26177C2.17625 8.67603 2.2375 8.08313 2.25562 7.48783C2.33604 6.33677 2.3075 5.16702 2.49146 4.03464C2.75729 2.39708 3.7325 1.60154 5.34333 1.5125C5.80167 1.48687 6.26146 1.50859 6.78083 1.50859V3.75599C6.56708 3.77184 6.37125 3.80421 6.17667 3.79812C4.86396 3.75621 4.79604 4.22228 4.70021 5.3551C4.64042 6.06551 4.72292 6.78807 4.67646 7.50086C4.62792 8.21018 4.53687 8.9158 4.40396 9.61339C4.21458 10.6244 3.61833 11.3763 2.79208 12.0143C4.39604 13.1024 4.57854 14.7932 4.68271 16.51C4.73875 17.4326 4.71312 18.3617 4.80292 19.2797C4.87292 19.9923 5.13875 20.1741 5.84458 20.1958ZM7.19646 10.5575C7.20479 10.5575 7.21292 10.5575 7.22125 10.5575C7.98812 10.5707 8.59979 11.2294 8.58708 12.0291C8.58708 12.0554 8.58625 12.0814 8.58479 12.1075C8.54167 12.8889 7.89917 13.4857 7.14958 13.4408C7.11938 13.4414 7.08937 13.4408 7.05917 13.4393C6.29583 13.3997 5.70771 12.7226 5.74562 11.9268C5.78354 11.1311 6.43312 10.518 7.19646 10.5575ZM11.9754 10.5575C12.8142 10.5508 13.3713 11.1174 13.3756 11.9818C13.3802 12.8694 12.8521 13.4373 12.0187 13.441C11.1712 13.4449 10.6133 12.8861 10.6087 12.0269C10.6062 11.9831 10.6056 11.9392 10.6069 11.8953C10.6304 11.1319 11.2431 10.5329 11.9754 10.5575ZM21.9812 9.46245C22.2044 10.3312 22.6387 10.6365 23.516 10.6782C23.6598 10.6852 23.8029 10.7106 24 10.7334V13.2362C23.8933 13.2727 23.784 13.3001 23.6729 13.3179C22.4973 13.3941 21.9615 13.8969 21.8427 15.1257C21.7669 15.9102 21.7731 16.7033 21.721 17.4906C21.6992 18.355 21.6237 19.217 21.4952 20.0711C21.1952 21.6188 20.2683 22.3909 18.7369 22.4851C18.244 22.5155 17.7475 22.4899 17.216 22.4899V20.2529C17.5021 20.2345 17.7546 20.2091 18.0077 20.2028C18.9227 20.18 19.2463 19.8724 19.291 18.9251C19.3406 17.8843 19.3623 16.8423 19.4069 15.8013C19.4717 14.2967 19.8669 12.9526 21.2115 12.0141C20.4421 11.4423 19.8244 10.7497 19.6644 9.81581C19.4708 8.68385 19.4083 7.52692 19.3042 6.37912C19.2527 5.80532 19.2552 5.22653 19.2015 4.65317C19.1435 4.0342 18.7356 3.82006 18.1952 3.80616C17.8856 3.79834 17.5748 3.80464 17.179 3.80464V1.62022C19.7048 1.18303 21.4496 2.05915 21.6117 4.57846C21.6796 5.63635 21.6696 6.69924 21.7346 7.75714C21.7631 8.33267 21.8456 8.90386 21.9812 9.46245Z" fill="#3F3F3F"/>
</svg>
