<svg width="24" height="24" viewBox="0 0 24 24" fill="none" xmlns="http://www.w3.org/2000/svg">
<path d="M3.56128 10.9814L6.91793 12.2031L10.3244 10.9633L6.96777 9.74162L3.56128 10.9814ZM6.9326 8.22323L10.2895 9.44493L13.6957 8.2051L10.3391 6.9834L6.9326 8.22323Z" fill="#F7F7F4" stroke="#CCCCCC" stroke-width="0.378666" stroke-linejoin="bevel"/>
<path d="M6.93262 8.22412L10.2895 9.44582V13.3906L6.93262 12.1691V8.22412Z" fill="#EFEEEA" stroke="#CCCCCC" stroke-width="0.378666" stroke-linejoin="bevel"/>
<path d="M0.189941 16.1908L3.54659 17.4127L6.95308 16.1729L3.59622 14.9512L0.189941 16.1908Z" fill="#F7F7F4" stroke="#CCCCCC" stroke-width="0.378666" stroke-linejoin="bevel"/>
<path d="M0.189941 16.1914L3.54659 17.4133V21.3581L0.189941 20.1366V16.1914Z" fill="#EFEEEA" stroke="#CCCCCC" stroke-width="0.378666" stroke-linejoin="bevel"/>
<path d="M0.189941 10.5814L3.54659 11.8033L6.95308 10.5635L3.59622 9.3418L0.189941 10.5814Z" fill="#F7F7F4" stroke="#CCCCCC" stroke-width="0.378666" stroke-linejoin="bevel"/>
<path d="M3.54651 11.8033V15.7481L6.953 14.5084V10.5635L3.54651 11.8033Z" fill="white" stroke="#CCCCCC" stroke-width="0.378666" stroke-linejoin="bevel"/>
<path d="M0.189941 10.5811L3.54659 11.803V15.7477L0.189941 14.5262V10.5811Z" fill="#EFEEEA" stroke="#CCCCCC" stroke-width="0.378666" stroke-linejoin="bevel"/>
<path d="M3.56104 17.418L6.9179 18.6397V22.5846L3.56125 21.3629L3.56104 17.418Z" fill="#EFEEEA" stroke="#CCCCCC" stroke-width="0.378666" stroke-linejoin="bevel"/>
<path d="M3.56104 13.4335L6.9179 14.6552L10.3244 13.4153L6.96775 12.1938L3.56104 13.4335Z" fill="#F7F7F4" stroke="#CCCCCC" stroke-width="0.378666" stroke-linejoin="bevel"/>
<path d="M3.56104 13.4331L6.9179 14.6548V18.5998L3.56125 17.3781L3.56104 13.4331Z" fill="#EFEEEA" stroke="#CCCCCC" stroke-width="0.378666" stroke-linejoin="bevel"/>
<path d="M20.4037 16.1869V20.1318L23.81 18.8922V14.9473L20.4037 16.1869Z" fill="white" stroke="#CCCCCC" stroke-width="0.378666" stroke-linejoin="bevel"/>
<path d="M17.0322 17.4132V21.3579L20.4387 20.1183V16.1733L17.0322 17.4132Z" fill="#FFD242" stroke="#CCCCCC" stroke-width="0.378666" stroke-linejoin="bevel"/>
<path d="M19.8217 18.3754C19.8217 18.4668 19.8048 18.5635 19.7719 18.66C19.7391 18.7564 19.6908 18.8507 19.6301 18.9375C19.5693 19.0242 19.4971 19.1018 19.4177 19.1656C19.3383 19.2295 19.2531 19.2784 19.1672 19.3097C18.9937 19.3728 18.8273 19.36 18.7046 19.2741C18.5819 19.1882 18.5129 19.0363 18.5128 18.8518C18.5128 18.7604 18.5297 18.6637 18.5626 18.5673C18.5954 18.4709 18.6436 18.3766 18.7044 18.2898C18.7651 18.2031 18.8373 18.1255 18.9167 18.0617C18.9961 17.9978 19.0812 17.9488 19.1672 17.9175C19.2531 17.8863 19.3382 17.8733 19.4176 17.8794C19.4971 17.8855 19.5692 17.9105 19.63 17.9531C19.6908 17.9956 19.739 18.0548 19.7719 18.1273C19.8048 18.1998 19.8217 18.2842 19.8217 18.3756V18.3754Z" fill="white"/>
<path d="M13.6609 18.6392V22.5842L17.0674 21.3444V17.3994L13.6609 18.6392Z" fill="#FFD242" stroke="#CCCCCC" stroke-width="0.378666" stroke-linejoin="bevel"/>
<path d="M10.2894 19.8646V23.8096L13.6957 22.5698V18.625L10.2894 19.8646Z" fill="white" stroke="#CCCCCC" stroke-width="0.378666" stroke-linejoin="bevel"/>
<path d="M6.93262 18.6436L10.2895 19.8653V23.8102L6.93262 22.5885V18.6436Z" fill="#EFEEEA" stroke="#CCCCCC" stroke-width="0.378666" stroke-linejoin="bevel"/>
<path d="M20.4037 12.2037V16.1484L23.81 14.9088V10.9639L20.4037 12.2037Z" fill="#FFD242" stroke="#CCCCCC" stroke-width="0.378666" stroke-linejoin="bevel"/>
<path d="M17.0469 6.99764L20.4037 8.21934L23.81 6.97952L20.4534 5.75781L17.0469 6.99764Z" fill="#FFC91D" stroke="#CCCCCC" stroke-width="0.378666" stroke-linejoin="bevel"/>
<path d="M20.4038 8.21981V12.1646L23.81 10.9249V6.97998L20.4038 8.21981ZM17.0322 13.4296V17.3744L20.4387 16.1348V12.1898L17.0322 13.4296Z" fill="#FFD242" stroke="#CCCCCC" stroke-width="0.378666" stroke-linejoin="bevel"/>
<path d="M17.0322 9.44491V13.3897L20.4387 12.15V8.20508L17.0322 9.44491Z" fill="#3775A9" stroke="#CCCCCC" stroke-width="0.378666" stroke-linejoin="bevel"/>
<path d="M13.6754 4.23961L17.0321 5.46131L20.4386 4.22149L17.0819 3L13.6754 4.23961Z" fill="#2F6491" stroke="#CCCCCC" stroke-width="0.378666" stroke-linejoin="bevel"/>
<path d="M17.0322 5.4608V9.40577L20.4387 8.16616V4.22119L17.0322 5.4608Z" fill="#3775A9" stroke="#CCCCCC" stroke-width="0.378666" stroke-linejoin="bevel"/>
<path d="M13.6609 14.6554V18.6003L17.0674 17.3605V13.4155L13.6609 14.6554Z" fill="#FFD242" stroke="#CCCCCC" stroke-width="0.378666" stroke-linejoin="bevel"/>
<path d="M13.6608 10.6705V14.6155L17.0672 13.3756V9.43066L13.6608 10.6705ZM10.2894 15.8803V19.8253L13.6957 18.5855V14.6407L10.2894 15.8803Z" fill="#3775A9" stroke="#CCCCCC" stroke-width="0.378666" stroke-linejoin="bevel"/>
<path d="M6.93262 14.6594L10.2895 15.8809V19.8258L6.93262 18.6041V14.6594ZM6.93262 10.6752L10.2895 11.8969L13.6958 10.6573L10.3391 9.43555L6.93262 10.6752Z" fill="#2F6491" stroke="#CCCCCC" stroke-width="0.378666" stroke-linejoin="bevel"/>
<path d="M10.2894 11.8968V15.8418L13.6957 14.602V10.6572L10.2894 11.8968Z" fill="#3775A9" stroke="#CCCCCC" stroke-width="0.378666" stroke-linejoin="bevel"/>
<path d="M6.93262 10.675L10.2895 11.8967V15.8417L6.93262 14.62V10.675ZM10.3042 5.4652L13.6608 6.6869L17.0673 5.44707L13.7104 4.22559L10.3042 5.4652Z" fill="#2F6491" stroke="#CCCCCC" stroke-width="0.378666" stroke-linejoin="bevel"/>
<path d="M13.6609 6.68709V10.6321L17.0674 9.39223V5.44727L13.6609 6.68709Z" fill="#3775A9" stroke="#CCCCCC" stroke-width="0.378666" stroke-linejoin="bevel"/>
<path d="M10.3042 5.46533L13.6608 6.68703V10.632L10.3042 9.4103V5.46533Z" fill="#2F6491" stroke="#CCCCCC" stroke-width="0.378666" stroke-linejoin="bevel"/>
<path d="M15.5871 7.95374C15.5871 8.04517 15.5702 8.14186 15.5373 8.2383C15.5044 8.33474 15.4562 8.42904 15.3954 8.5158C15.3346 8.60256 15.2625 8.68009 15.183 8.74396C15.1036 8.80783 15.0185 8.85679 14.9325 8.88803C14.8466 8.91931 14.7614 8.93226 14.682 8.92617C14.6026 8.92007 14.5305 8.89504 14.4697 8.8525C14.4089 8.80996 14.3607 8.75075 14.3278 8.67825C14.2949 8.60575 14.278 8.52137 14.278 8.42995C14.2779 8.33852 14.2949 8.24182 14.3277 8.14538C14.3606 8.04894 14.4088 7.95465 14.4696 7.86789C14.5304 7.78112 14.6026 7.70359 14.682 7.63973C14.7614 7.57586 14.8465 7.5269 14.9325 7.49565C15.0185 7.46438 15.1036 7.45142 15.183 7.45752C15.2624 7.46362 15.3346 7.48865 15.3954 7.53119C15.4561 7.57373 15.5044 7.63294 15.5373 7.70544C15.5701 7.77794 15.5871 7.86231 15.5871 7.95374V7.95374Z" fill="white"/>
</svg>

