<svg width="30" height="26" viewBox="0 0 30 26" fill="none" xmlns="http://www.w3.org/2000/svg">
<path d="M4.99658 10.463L8.97568 11.9114L13.0139 10.4415L9.03477 8.99314L4.99658 10.463ZM8.99307 7.19302L12.9724 8.6414L17.0104 7.17153L13.0313 5.72314L8.99307 7.19302Z" fill="#F7F7F4" stroke="#CCCCCC" stroke-width="0.378666" stroke-linejoin="bevel"/>
<path d="M8.99292 7.19287L12.9723 8.64126V13.3179L8.99292 11.8698V7.19287Z" fill="#EFEEEA" stroke="#CCCCCC" stroke-width="0.378666" stroke-linejoin="bevel"/>
<path d="M1 16.639L4.97909 18.0877L9.01728 16.6178L5.03793 15.1694L1 16.639Z" fill="#F7F7F4" stroke="#CCCCCC" stroke-width="0.378666" stroke-linejoin="bevel"/>
<path d="M1 16.6392L4.9791 18.0878V22.7645L1 21.3164V16.6392Z" fill="#EFEEEA" stroke="#CCCCCC" stroke-width="0.378666" stroke-linejoin="bevel"/>
<path d="M1 9.98817L4.97909 11.4368L9.01728 9.96694L5.03793 8.51855L1 9.98817Z" fill="#F7F7F4" stroke="#CCCCCC" stroke-width="0.378666" stroke-linejoin="bevel"/>
<path d="M4.979 11.4367V16.1134L9.01719 14.6437V9.9668L4.979 11.4367Z" fill="white" stroke="#CCCCCC" stroke-width="0.378666" stroke-linejoin="bevel"/>
<path d="M1 9.98828L4.9791 11.4369V16.1136L1 14.6655V9.98828Z" fill="#EFEEEA" stroke="#CCCCCC" stroke-width="0.378666" stroke-linejoin="bevel"/>
<path d="M4.99634 18.0928L8.97569 19.5412V24.2181L4.99659 22.7697L4.99634 18.0928Z" fill="#EFEEEA" stroke="#CCCCCC" stroke-width="0.378666" stroke-linejoin="bevel"/>
<path d="M4.99634 13.3695L8.97569 14.8179L13.0139 13.348L9.03478 11.8999L4.99634 13.3695Z" fill="#F7F7F4" stroke="#CCCCCC" stroke-width="0.378666" stroke-linejoin="bevel"/>
<path d="M4.99634 13.3691L8.97569 14.8175V19.4945L4.99659 18.0461L4.99634 13.3691Z" fill="#EFEEEA" stroke="#CCCCCC" stroke-width="0.378666" stroke-linejoin="bevel"/>
<path d="M24.9622 16.6342V21.3111L29.0001 19.8415V15.1646L24.9622 16.6342Z" fill="white" stroke="#CCCCCC" stroke-width="0.378666" stroke-linejoin="bevel"/>
<path d="M20.9653 18.0875V22.7642L25.0035 21.2946V16.6177L20.9653 18.0875Z" fill="#FFD242" stroke="#CCCCCC" stroke-width="0.378666" stroke-linejoin="bevel"/>
<path d="M24.2717 19.228C24.2717 19.3364 24.2517 19.451 24.2127 19.5653C24.1737 19.6797 24.1166 19.7914 24.0446 19.8943C23.9725 19.9972 23.887 20.0891 23.7929 20.1648C23.6988 20.2405 23.5979 20.2986 23.4961 20.3356C23.2905 20.4104 23.0933 20.3952 22.9479 20.2934C22.8025 20.1916 22.7208 20.0115 22.7207 19.7928C22.7207 19.6844 22.7407 19.5698 22.7796 19.4555C22.8186 19.3411 22.8757 19.2294 22.9477 19.1265C23.0197 19.0237 23.1052 18.9317 23.1993 18.856C23.2934 18.7803 23.3942 18.7222 23.4961 18.6851C23.5979 18.6481 23.6988 18.6327 23.7929 18.6399C23.887 18.6472 23.9725 18.6768 24.0445 18.7273C24.1165 18.7777 24.1737 18.8479 24.2126 18.9338C24.2516 19.0198 24.2717 19.1198 24.2717 19.2282V19.228Z" fill="white"/>
<path d="M16.9688 19.5412V24.2181L21.0069 22.7482V18.0713L16.9688 19.5412Z" fill="#FFD242" stroke="#CCCCCC" stroke-width="0.378666" stroke-linejoin="bevel"/>
<path d="M12.9724 20.994V25.671L17.0103 24.2011V19.5244L12.9724 20.994Z" fill="white" stroke="#CCCCCC" stroke-width="0.378666" stroke-linejoin="bevel"/>
<path d="M8.99292 19.5459L12.9723 20.9943V25.6712L8.99292 24.2228V19.5459Z" fill="#EFEEEA" stroke="#CCCCCC" stroke-width="0.378666" stroke-linejoin="bevel"/>
<path d="M24.9622 11.9113V16.588L29.0001 15.1183V10.4414L24.9622 11.9113Z" fill="#FFD242" stroke="#CCCCCC" stroke-width="0.378666" stroke-linejoin="bevel"/>
<path d="M20.9827 5.73941L24.962 7.18779L28.9999 5.71792L25.0209 4.26953L20.9827 5.73941Z" fill="#FFC91D" stroke="#CCCCCC" stroke-width="0.378666" stroke-linejoin="bevel"/>
<path d="M24.9621 7.18814V11.8648L29 10.3952V5.71826L24.9621 7.18814ZM20.9653 13.3646V18.0413L25.0035 16.5717V11.8947L20.9653 13.3646Z" fill="#FFD242" stroke="#CCCCCC" stroke-width="0.378666" stroke-linejoin="bevel"/>
<path d="M20.9653 8.64126V13.3179L25.0035 11.8483V7.17139L20.9653 8.64126Z" fill="#3775A9" stroke="#CCCCCC" stroke-width="0.378666" stroke-linejoin="bevel"/>
<path d="M16.9863 2.46962L20.9654 3.918L25.0036 2.44813L21.0245 1L16.9863 2.46962Z" fill="#2F6491" stroke="#CCCCCC" stroke-width="0.378666" stroke-linejoin="bevel"/>
<path d="M20.9653 3.91786V8.5948L25.0035 7.12518V2.44824L20.9653 3.91786Z" fill="#3775A9" stroke="#CCCCCC" stroke-width="0.378666" stroke-linejoin="bevel"/>
<path d="M16.9688 14.8175V19.4945L21.0069 18.0246V13.3477L16.9688 14.8175Z" fill="#FFD242" stroke="#CCCCCC" stroke-width="0.378666" stroke-linejoin="bevel"/>
<path d="M16.9689 10.0944V14.7713L21.0071 13.3015V8.62451L16.9689 10.0944ZM12.9724 16.2709V20.9478L17.0103 19.4779V14.8013L12.9724 16.2709Z" fill="#3775A9" stroke="#CCCCCC" stroke-width="0.378666" stroke-linejoin="bevel"/>
<path d="M8.99292 14.823L12.9723 16.2711V20.9481L8.99292 19.4997V14.823ZM8.99292 10.0995L12.9723 11.5479L17.0102 10.0783L13.0311 8.62988L8.99292 10.0995Z" fill="#2F6491" stroke="#CCCCCC" stroke-width="0.378666" stroke-linejoin="bevel"/>
<path d="M12.9724 11.5477V16.2247L17.0103 14.7548V10.0781L12.9724 11.5477Z" fill="#3775A9" stroke="#CCCCCC" stroke-width="0.378666" stroke-linejoin="bevel"/>
<path d="M8.99292 10.0992L12.9723 11.5476V16.2246L8.99292 14.7762V10.0992ZM12.9897 3.92274L16.9688 5.37113L21.0069 3.90126L17.0276 2.45312L12.9897 3.92274Z" fill="#2F6491" stroke="#CCCCCC" stroke-width="0.378666" stroke-linejoin="bevel"/>
<path d="M16.9688 5.37124V10.0482L21.0069 8.57831V3.90137L16.9688 5.37124Z" fill="#3775A9" stroke="#CCCCCC" stroke-width="0.378666" stroke-linejoin="bevel"/>
<path d="M12.9897 3.92285L16.9688 5.37124V10.0482L12.9897 8.59979V3.92285Z" fill="#2F6491" stroke="#CCCCCC" stroke-width="0.378666" stroke-linejoin="bevel"/>
<path d="M19.2519 6.87323C19.2519 6.98162 19.2319 7.09626 19.1929 7.2106C19.1539 7.32493 19.0968 7.43672 19.0248 7.53958C18.9528 7.64244 18.8673 7.73436 18.7731 7.81008C18.679 7.8858 18.5782 7.94384 18.4763 7.98088C18.3744 8.01796 18.2736 8.03332 18.1795 8.02609C18.0854 8.01886 17.9999 7.98918 17.9279 7.93875C17.8558 7.88832 17.7987 7.81812 17.7597 7.73217C17.7207 7.64622 17.7007 7.54619 17.7007 7.4378C17.7007 7.32941 17.7207 7.21477 17.7597 7.10043C17.7986 6.9861 17.8558 6.87431 17.9278 6.77145C17.9998 6.66859 18.0853 6.57667 18.1794 6.50095C18.2736 6.42523 18.3744 6.36719 18.4763 6.33015C18.5781 6.29307 18.679 6.27771 18.7731 6.28494C18.8672 6.29217 18.9527 6.32185 19.0247 6.37228C19.0968 6.42271 19.1539 6.49291 19.1929 6.57886C19.2318 6.66481 19.2519 6.76484 19.2519 6.87323V6.87323Z" fill="white"/>
</svg>
